<mxfile host="app.diagrams.net" modified="2022-02-01T03:09:40.690Z" agent="5.0 (Windows NT 10.0; Win64; x64) AppleWebKit/537.36 (KHTML, like Gecko) Chrome/96.0.4664.93 Safari/537.36" etag="tpuxhZfDwQyKqk7gPoRG" version="16.0.3" type="github">
  <diagram id="HmdcAvKUY2jd_h3zklQF" name="Page-1">
    <mxGraphModel dx="1422" dy="762" grid="1" gridSize="10" guides="1" tooltips="1" connect="1" arrows="1" fold="1" page="1" pageScale="1" pageWidth="1654" pageHeight="2336" math="0" shadow="0">
      <root>
        <mxCell id="0" />
        <mxCell id="1" parent="0" />
        <mxCell id="oZWj6VGUN02tXFsYtWKZ-107" value="" style="rounded=1;whiteSpace=wrap;html=1;dashed=1;fontFamily=Times New Roman;fontSize=16;" vertex="1" parent="1">
          <mxGeometry x="570" y="510" width="530" height="90" as="geometry" />
        </mxCell>
        <mxCell id="oZWj6VGUN02tXFsYtWKZ-76" value="" style="rounded=1;whiteSpace=wrap;html=1;dashed=1;fontFamily=Times New Roman;fontSize=16;" vertex="1" parent="1">
          <mxGeometry x="937" y="213" width="160" height="180" as="geometry" />
        </mxCell>
        <mxCell id="oZWj6VGUN02tXFsYtWKZ-20" value="" style="rounded=1;whiteSpace=wrap;html=1;dashed=1;fontFamily=Times New Roman;fontSize=16;" vertex="1" parent="1">
          <mxGeometry x="310" y="70" width="790" height="110" as="geometry" />
        </mxCell>
        <mxCell id="oZWj6VGUN02tXFsYtWKZ-1" value="接入" style="text;html=1;strokeColor=none;fillColor=none;align=center;verticalAlign=middle;whiteSpace=wrap;rounded=0;fontFamily=Times New Roman;fontSize=16;" vertex="1" parent="1">
          <mxGeometry x="220" y="110" width="60" height="30" as="geometry" />
        </mxCell>
        <mxCell id="oZWj6VGUN02tXFsYtWKZ-2" value="处理" style="text;html=1;strokeColor=none;fillColor=none;align=center;verticalAlign=middle;whiteSpace=wrap;rounded=0;fontFamily=Times New Roman;fontSize=16;" vertex="1" parent="1">
          <mxGeometry x="220" y="280" width="60" height="30" as="geometry" />
        </mxCell>
        <mxCell id="oZWj6VGUN02tXFsYtWKZ-3" value="存储" style="text;html=1;strokeColor=none;fillColor=none;align=center;verticalAlign=middle;whiteSpace=wrap;rounded=0;fontFamily=Times New Roman;fontSize=16;" vertex="1" parent="1">
          <mxGeometry x="220" y="510" width="60" height="30" as="geometry" />
        </mxCell>
        <mxCell id="oZWj6VGUN02tXFsYtWKZ-4" value="" style="endArrow=none;html=1;rounded=0;fontFamily=Times New Roman;fontSize=16;" edge="1" parent="1">
          <mxGeometry width="50" height="50" relative="1" as="geometry">
            <mxPoint x="225" y="190" as="sourcePoint" />
            <mxPoint x="1130" y="190" as="targetPoint" />
          </mxGeometry>
        </mxCell>
        <mxCell id="oZWj6VGUN02tXFsYtWKZ-5" value="" style="endArrow=none;html=1;rounded=0;fontFamily=Times New Roman;fontSize=16;" edge="1" parent="1">
          <mxGeometry width="50" height="50" relative="1" as="geometry">
            <mxPoint x="220" y="410" as="sourcePoint" />
            <mxPoint x="1130" y="410" as="targetPoint" />
          </mxGeometry>
        </mxCell>
        <mxCell id="oZWj6VGUN02tXFsYtWKZ-6" value="" style="endArrow=none;html=1;rounded=0;fontFamily=Times New Roman;fontSize=16;" edge="1" parent="1">
          <mxGeometry width="50" height="50" relative="1" as="geometry">
            <mxPoint x="220" y="610" as="sourcePoint" />
            <mxPoint x="1130" y="610" as="targetPoint" />
          </mxGeometry>
        </mxCell>
        <mxCell id="oZWj6VGUN02tXFsYtWKZ-7" value="体育号PC视频" style="rounded=1;whiteSpace=wrap;html=1;fillColor=#dae8fc;strokeColor=#6c8ebf;fontFamily=Times New Roman;fontSize=16;" vertex="1" parent="1">
          <mxGeometry x="320" y="100" width="120" height="60" as="geometry" />
        </mxCell>
        <mxCell id="oZWj6VGUN02tXFsYtWKZ-8" value="体育个人直播" style="rounded=1;whiteSpace=wrap;html=1;fillColor=#dae8fc;strokeColor=#6c8ebf;fontFamily=Times New Roman;fontSize=16;" vertex="1" parent="1">
          <mxGeometry x="645" y="100" width="120" height="60" as="geometry" />
        </mxCell>
        <mxCell id="oZWj6VGUN02tXFsYtWKZ-9" value="草根直播" style="rounded=1;whiteSpace=wrap;html=1;fillColor=#dae8fc;strokeColor=#6c8ebf;fontFamily=Times New Roman;fontSize=16;" vertex="1" parent="1">
          <mxGeometry x="808" y="100" width="120" height="60" as="geometry" />
        </mxCell>
        <mxCell id="oZWj6VGUN02tXFsYtWKZ-10" value="wsc" style="rounded=1;whiteSpace=wrap;html=1;fontFamily=Times New Roman;fontSize=16;" vertex="1" parent="1">
          <mxGeometry x="970" y="100" width="120" height="60" as="geometry" />
        </mxCell>
        <mxCell id="oZWj6VGUN02tXFsYtWKZ-14" value="体育号app视频" style="rounded=1;whiteSpace=wrap;html=1;fillColor=#dae8fc;strokeColor=#6c8ebf;fontFamily=Times New Roman;fontSize=16;" vertex="1" parent="1">
          <mxGeometry x="483" y="100" width="120" height="60" as="geometry" />
        </mxCell>
        <mxCell id="oZWj6VGUN02tXFsYtWKZ-15" value="... ..." style="ellipse;whiteSpace=wrap;html=1;fontSize=16;" vertex="1" parent="1">
          <mxGeometry x="1770" y="320" width="130" height="60" as="geometry" />
        </mxCell>
        <mxCell id="oZWj6VGUN02tXFsYtWKZ-17" value="抽帧" style="ellipse;whiteSpace=wrap;html=1;fontSize=16;" vertex="1" parent="1">
          <mxGeometry x="1760" y="210" width="130" height="60" as="geometry" />
        </mxCell>
        <mxCell id="oZWj6VGUN02tXFsYtWKZ-21" value="" style="endArrow=none;html=1;rounded=0;fontFamily=Times New Roman;fontSize=16;" edge="1" parent="1">
          <mxGeometry width="50" height="50" relative="1" as="geometry">
            <mxPoint x="293" y="770" as="sourcePoint" />
            <mxPoint x="293" y="50" as="targetPoint" />
          </mxGeometry>
        </mxCell>
        <mxCell id="oZWj6VGUN02tXFsYtWKZ-22" value="自研DelayQ" style="verticalLabelPosition=bottom;verticalAlign=top;html=1;shape=mxgraph.flowchart.parallel_mode;pointerEvents=1;dashed=1;fontFamily=Times New Roman;fontSize=16;" vertex="1" parent="1">
          <mxGeometry x="310" y="290" width="90" height="40" as="geometry" />
        </mxCell>
        <mxCell id="oZWj6VGUN02tXFsYtWKZ-24" value="" style="endArrow=none;html=1;rounded=0;fontFamily=Times New Roman;fontSize=16;" edge="1" parent="1">
          <mxGeometry width="50" height="50" relative="1" as="geometry">
            <mxPoint x="220" y="770" as="sourcePoint" />
            <mxPoint x="1260" y="770" as="targetPoint" />
          </mxGeometry>
        </mxCell>
        <mxCell id="oZWj6VGUN02tXFsYtWKZ-25" value="分发" style="text;html=1;strokeColor=none;fillColor=none;align=center;verticalAlign=middle;whiteSpace=wrap;rounded=0;fontFamily=Times New Roman;fontSize=16;" vertex="1" parent="1">
          <mxGeometry x="220" y="680" width="60" height="30" as="geometry" />
        </mxCell>
        <mxCell id="oZWj6VGUN02tXFsYtWKZ-26" value="体育推荐页" style="rounded=1;whiteSpace=wrap;html=1;dashed=1;fontFamily=Times New Roman;fontSize=16;" vertex="1" parent="1">
          <mxGeometry x="448" y="670" width="120" height="60" as="geometry" />
        </mxCell>
        <mxCell id="oZWj6VGUN02tXFsYtWKZ-27" value="企鹅号视频发布" style="rounded=1;whiteSpace=wrap;html=1;dashed=1;fontFamily=Times New Roman;fontSize=16;" vertex="1" parent="1">
          <mxGeometry x="310" y="670" width="120" height="60" as="geometry" />
        </mxCell>
        <mxCell id="oZWj6VGUN02tXFsYtWKZ-28" value="体育个人主页" style="rounded=1;whiteSpace=wrap;html=1;dashed=1;fontFamily=Times New Roman;fontSize=16;" vertex="1" parent="1">
          <mxGeometry x="586" y="670" width="120" height="60" as="geometry" />
        </mxCell>
        <mxCell id="oZWj6VGUN02tXFsYtWKZ-29" value="体育球员球队页" style="rounded=1;whiteSpace=wrap;html=1;dashed=1;fontFamily=Times New Roman;fontSize=16;" vertex="1" parent="1">
          <mxGeometry x="862" y="670" width="120" height="60" as="geometry" />
        </mxCell>
        <mxCell id="oZWj6VGUN02tXFsYtWKZ-30" value="... ..." style="rounded=1;whiteSpace=wrap;html=1;fillColor=#dae8fc;strokeColor=#6c8ebf;fontFamily=Times New Roman;fontSize=16;" vertex="1" parent="1">
          <mxGeometry x="1000" y="670" width="120" height="60" as="geometry" />
        </mxCell>
        <mxCell id="oZWj6VGUN02tXFsYtWKZ-32" value="tdsql" style="strokeWidth=2;html=1;shape=mxgraph.flowchart.database;whiteSpace=wrap;fontFamily=Times New Roman;fontSize=16;" vertex="1" parent="1">
          <mxGeometry x="603" y="524" width="60" height="60" as="geometry" />
        </mxCell>
        <mxCell id="oZWj6VGUN02tXFsYtWKZ-33" value="mysql" style="strokeWidth=2;html=1;shape=mxgraph.flowchart.database;whiteSpace=wrap;fontFamily=Times New Roman;fontSize=16;" vertex="1" parent="1">
          <mxGeometry x="470" y="524" width="60" height="60" as="geometry" />
        </mxCell>
        <mxCell id="oZWj6VGUN02tXFsYtWKZ-108" style="edgeStyle=orthogonalEdgeStyle;rounded=0;orthogonalLoop=1;jettySize=auto;html=1;exitX=0.5;exitY=1;exitDx=0;exitDy=0;exitPerimeter=0;entryX=0.5;entryY=0;entryDx=0;entryDy=0;fontFamily=Times New Roman;fontSize=16;" edge="1" parent="1" source="oZWj6VGUN02tXFsYtWKZ-34" target="oZWj6VGUN02tXFsYtWKZ-107">
          <mxGeometry relative="1" as="geometry" />
        </mxCell>
        <mxCell id="oZWj6VGUN02tXFsYtWKZ-34" value="kafka" style="strokeWidth=2;html=1;shape=mxgraph.flowchart.direct_data;whiteSpace=wrap;fontFamily=Times New Roman;fontSize=16;fontColor=rgb(0, 0, 0);align=center;strokeColor=rgb(0, 0, 0);fillColor=rgb(255, 255, 255);" vertex="1" parent="1">
          <mxGeometry x="784" y="422" width="104" height="58" as="geometry" />
        </mxCell>
        <mxCell id="oZWj6VGUN02tXFsYtWKZ-35" value="redis" style="strokeWidth=2;html=1;shape=mxgraph.flowchart.database;whiteSpace=wrap;fontFamily=Times New Roman;fontSize=16;" vertex="1" parent="1">
          <mxGeometry x="807" y="525" width="60" height="60" as="geometry" />
        </mxCell>
        <mxCell id="oZWj6VGUN02tXFsYtWKZ-36" value="es" style="shape=datastore;whiteSpace=wrap;html=1;fontFamily=Times New Roman;fontSize=16;align=center;strokeColor=#b85450;strokeWidth=2;fillColor=#f8cecc;" vertex="1" parent="1">
          <mxGeometry x="1010" y="524" width="60" height="60" as="geometry" />
        </mxCell>
        <mxCell id="oZWj6VGUN02tXFsYtWKZ-37" value="" style="rounded=1;whiteSpace=wrap;html=1;dashed=1;fontFamily=Times New Roman;fontSize=16;" vertex="1" parent="1">
          <mxGeometry x="430" y="220" width="470" height="170" as="geometry" />
        </mxCell>
        <mxCell id="oZWj6VGUN02tXFsYtWKZ-38" value="" style="endArrow=classic;html=1;rounded=0;entryX=0.5;entryY=0;entryDx=0;entryDy=0;entryPerimeter=0;fontFamily=Times New Roman;fontSize=16;" edge="1" parent="1" target="oZWj6VGUN02tXFsYtWKZ-22">
          <mxGeometry width="50" height="50" relative="1" as="geometry">
            <mxPoint x="355" y="180" as="sourcePoint" />
            <mxPoint x="170" y="210" as="targetPoint" />
          </mxGeometry>
        </mxCell>
        <mxCell id="oZWj6VGUN02tXFsYtWKZ-39" value="" style="endArrow=classic;html=1;rounded=0;entryX=0.34;entryY=-0.006;entryDx=0;entryDy=0;entryPerimeter=0;fontFamily=Times New Roman;fontSize=16;" edge="1" parent="1" target="oZWj6VGUN02tXFsYtWKZ-37">
          <mxGeometry width="50" height="50" relative="1" as="geometry">
            <mxPoint x="590" y="180" as="sourcePoint" />
            <mxPoint x="590" y="210" as="targetPoint" />
          </mxGeometry>
        </mxCell>
        <mxCell id="oZWj6VGUN02tXFsYtWKZ-40" value="" style="endArrow=classic;html=1;rounded=0;fontFamily=Times New Roman;fontSize=16;" edge="1" parent="1">
          <mxGeometry width="50" height="50" relative="1" as="geometry">
            <mxPoint x="400" y="310" as="sourcePoint" />
            <mxPoint x="430" y="310" as="targetPoint" />
          </mxGeometry>
        </mxCell>
        <mxCell id="oZWj6VGUN02tXFsYtWKZ-41" value="&lt;span style=&quot;color: rgb(0, 0, 0); font-size: 16px; font-style: normal; font-weight: 400; letter-spacing: normal; text-align: center; text-indent: 0px; text-transform: none; word-spacing: 0px; background-color: rgb(248, 249, 250); display: inline; float: none;&quot;&gt;星&lt;br style=&quot;font-size: 16px;&quot;&gt;航&lt;br style=&quot;font-size: 16px;&quot;&gt;加&lt;br style=&quot;font-size: 16px;&quot;&gt;工&lt;br style=&quot;font-size: 16px;&quot;&gt;管&lt;br style=&quot;font-size: 16px;&quot;&gt;线&lt;/span&gt;" style="text;html=1;strokeColor=none;fillColor=none;align=center;verticalAlign=middle;whiteSpace=wrap;rounded=0;dashed=1;fontFamily=Times New Roman;fontSize=16;" vertex="1" parent="1">
          <mxGeometry x="420" y="290" width="60" height="25" as="geometry" />
        </mxCell>
        <mxCell id="oZWj6VGUN02tXFsYtWKZ-51" value="" style="endArrow=none;html=1;rounded=0;fontFamily=Times New Roman;fontSize=16;" edge="1" parent="1">
          <mxGeometry width="50" height="50" relative="1" as="geometry">
            <mxPoint x="225" y="50" as="sourcePoint" />
            <mxPoint x="1260" y="50" as="targetPoint" />
          </mxGeometry>
        </mxCell>
        <mxCell id="oZWj6VGUN02tXFsYtWKZ-58" value="星航管线中台" style="rounded=1;whiteSpace=wrap;html=1;fillColor=#ffe6cc;strokeColor=#d79b00;fontFamily=Times New Roman;fontSize=16;" vertex="1" parent="1">
          <mxGeometry x="957" y="228" width="120" height="27" as="geometry" />
        </mxCell>
        <mxCell id="oZWj6VGUN02tXFsYtWKZ-59" value="介质转码" style="ellipse;whiteSpace=wrap;html=1;fontFamily=Times New Roman;fontSize=16;" vertex="1" parent="1">
          <mxGeometry x="470" y="249.5" width="90" height="47" as="geometry" />
        </mxCell>
        <mxCell id="oZWj6VGUN02tXFsYtWKZ-66" value="火箭审核" style="ellipse;whiteSpace=wrap;html=1;fontFamily=Times New Roman;fontSize=16;" vertex="1" parent="1">
          <mxGeometry x="690" y="253" width="90" height="47" as="geometry" />
        </mxCell>
        <mxCell id="oZWj6VGUN02tXFsYtWKZ-67" value="抽帧" style="ellipse;whiteSpace=wrap;html=1;fontFamily=Times New Roman;fontSize=16;" vertex="1" parent="1">
          <mxGeometry x="791" y="253" width="90" height="47" as="geometry" />
        </mxCell>
        <mxCell id="oZWj6VGUN02tXFsYtWKZ-68" value="标签" style="ellipse;whiteSpace=wrap;html=1;fontFamily=Times New Roman;fontSize=16;" vertex="1" parent="1">
          <mxGeometry x="470" y="317.5" width="90" height="47" as="geometry" />
        </mxCell>
        <mxCell id="oZWj6VGUN02tXFsYtWKZ-69" value="分类" style="ellipse;whiteSpace=wrap;html=1;fontFamily=Times New Roman;fontSize=16;" vertex="1" parent="1">
          <mxGeometry x="580" y="315" width="90" height="47" as="geometry" />
        </mxCell>
        <mxCell id="oZWj6VGUN02tXFsYtWKZ-70" value="体育标准化" style="ellipse;whiteSpace=wrap;html=1;fontFamily=Times New Roman;fontSize=16;" vertex="1" parent="1">
          <mxGeometry x="685" y="321.5" width="90" height="47" as="geometry" />
        </mxCell>
        <mxCell id="oZWj6VGUN02tXFsYtWKZ-71" value="封面图" style="ellipse;whiteSpace=wrap;html=1;fontFamily=Times New Roman;fontSize=16;" vertex="1" parent="1">
          <mxGeometry x="580" y="253" width="90" height="47" as="geometry" />
        </mxCell>
        <mxCell id="oZWj6VGUN02tXFsYtWKZ-72" value="... ..." style="ellipse;whiteSpace=wrap;html=1;fontFamily=Times New Roman;fontSize=16;" vertex="1" parent="1">
          <mxGeometry x="791" y="321.5" width="90" height="47" as="geometry" />
        </mxCell>
        <mxCell id="oZWj6VGUN02tXFsYtWKZ-73" value="视频中台" style="rounded=1;whiteSpace=wrap;html=1;fillColor=#ffe6cc;strokeColor=#d79b00;fontFamily=Times New Roman;fontSize=16;" vertex="1" parent="1">
          <mxGeometry x="957" y="269" width="120" height="27" as="geometry" />
        </mxCell>
        <mxCell id="oZWj6VGUN02tXFsYtWKZ-74" value="火箭审核中台" style="rounded=1;whiteSpace=wrap;html=1;fillColor=#ffe6cc;strokeColor=#d79b00;fontFamily=Times New Roman;fontSize=16;" vertex="1" parent="1">
          <mxGeometry x="957" y="309" width="120" height="27" as="geometry" />
        </mxCell>
        <mxCell id="oZWj6VGUN02tXFsYtWKZ-75" value="火箭审核中台" style="rounded=1;whiteSpace=wrap;html=1;fillColor=#ffe6cc;strokeColor=#d79b00;fontFamily=Times New Roman;fontSize=16;" vertex="1" parent="1">
          <mxGeometry x="957" y="349.5" width="120" height="27" as="geometry" />
        </mxCell>
        <mxCell id="oZWj6VGUN02tXFsYtWKZ-80" value="" style="endArrow=none;html=1;rounded=0;fontFamily=Times New Roman;fontSize=16;" edge="1" parent="1">
          <mxGeometry width="50" height="50" relative="1" as="geometry">
            <mxPoint x="1130" y="770" as="sourcePoint" />
            <mxPoint x="1130" y="50" as="targetPoint" />
          </mxGeometry>
        </mxCell>
        <mxCell id="oZWj6VGUN02tXFsYtWKZ-81" value="比赛底层页" style="rounded=1;whiteSpace=wrap;html=1;dashed=1;fontFamily=Times New Roman;fontSize=16;" vertex="1" parent="1">
          <mxGeometry x="724" y="670" width="120" height="60" as="geometry" />
        </mxCell>
        <mxCell id="oZWj6VGUN02tXFsYtWKZ-82" value="" style="endArrow=classic;html=1;rounded=0;exitX=1;exitY=0.5;exitDx=0;exitDy=0;entryX=0;entryY=0.5;entryDx=0;entryDy=0;fontFamily=Times New Roman;fontSize=16;" edge="1" parent="1" source="oZWj6VGUN02tXFsYtWKZ-37" target="oZWj6VGUN02tXFsYtWKZ-76">
          <mxGeometry width="50" height="50" relative="1" as="geometry">
            <mxPoint x="890" y="310" as="sourcePoint" />
            <mxPoint x="940" y="260" as="targetPoint" />
          </mxGeometry>
        </mxCell>
        <mxCell id="oZWj6VGUN02tXFsYtWKZ-83" value="" style="rounded=1;whiteSpace=wrap;html=1;dashed=1;fontFamily=Times New Roman;fontSize=16;" vertex="1" parent="1">
          <mxGeometry x="430" y="220" width="470" height="170" as="geometry" />
        </mxCell>
        <mxCell id="oZWj6VGUN02tXFsYtWKZ-84" value="" style="endArrow=classic;html=1;rounded=0;fontFamily=Times New Roman;fontSize=16;" edge="1" parent="1">
          <mxGeometry width="50" height="50" relative="1" as="geometry">
            <mxPoint x="400" y="310" as="sourcePoint" />
            <mxPoint x="430" y="310" as="targetPoint" />
          </mxGeometry>
        </mxCell>
        <mxCell id="oZWj6VGUN02tXFsYtWKZ-85" value="&lt;span style=&quot;color: rgb(0, 0, 0); font-size: 16px; font-style: normal; font-weight: 400; letter-spacing: normal; text-align: center; text-indent: 0px; text-transform: none; word-spacing: 0px; background-color: rgb(248, 249, 250); display: inline; float: none;&quot;&gt;星&lt;br style=&quot;font-size: 16px;&quot;&gt;航&lt;br style=&quot;font-size: 16px;&quot;&gt;加&lt;br style=&quot;font-size: 16px;&quot;&gt;工&lt;br style=&quot;font-size: 16px;&quot;&gt;管&lt;br style=&quot;font-size: 16px;&quot;&gt;线&lt;/span&gt;" style="text;html=1;strokeColor=none;fillColor=none;align=center;verticalAlign=middle;whiteSpace=wrap;rounded=0;dashed=1;fontFamily=Times New Roman;fontSize=16;" vertex="1" parent="1">
          <mxGeometry x="420" y="290" width="60" height="25" as="geometry" />
        </mxCell>
        <mxCell id="oZWj6VGUN02tXFsYtWKZ-86" value="介质转码" style="ellipse;whiteSpace=wrap;html=1;fillColor=#ffe6cc;strokeColor=#d79b00;fontFamily=Times New Roman;fontSize=16;" vertex="1" parent="1">
          <mxGeometry x="470" y="249.5" width="90" height="47" as="geometry" />
        </mxCell>
        <mxCell id="oZWj6VGUN02tXFsYtWKZ-87" value="火箭审核" style="ellipse;whiteSpace=wrap;html=1;fillColor=#ffe6cc;strokeColor=#d79b00;fontFamily=Times New Roman;fontSize=16;" vertex="1" parent="1">
          <mxGeometry x="684" y="249.5" width="90" height="47" as="geometry" />
        </mxCell>
        <mxCell id="oZWj6VGUN02tXFsYtWKZ-88" value="抽帧" style="ellipse;whiteSpace=wrap;html=1;fontFamily=Times New Roman;fontSize=16;" vertex="1" parent="1">
          <mxGeometry x="791" y="249.5" width="90" height="47" as="geometry" />
        </mxCell>
        <mxCell id="oZWj6VGUN02tXFsYtWKZ-89" value="标签" style="ellipse;whiteSpace=wrap;html=1;fontFamily=Times New Roman;fontSize=16;" vertex="1" parent="1">
          <mxGeometry x="470" y="321.5" width="90" height="47" as="geometry" />
        </mxCell>
        <mxCell id="oZWj6VGUN02tXFsYtWKZ-90" value="分类" style="ellipse;whiteSpace=wrap;html=1;fillColor=#ffe6cc;strokeColor=#d79b00;fontFamily=Times New Roman;fontSize=16;" vertex="1" parent="1">
          <mxGeometry x="577" y="321.5" width="90" height="47" as="geometry" />
        </mxCell>
        <mxCell id="oZWj6VGUN02tXFsYtWKZ-91" value="体育标准化" style="ellipse;whiteSpace=wrap;html=1;fontFamily=Times New Roman;fontSize=16;" vertex="1" parent="1">
          <mxGeometry x="684" y="321.5" width="90" height="47" as="geometry" />
        </mxCell>
        <mxCell id="oZWj6VGUN02tXFsYtWKZ-92" value="封面图" style="ellipse;whiteSpace=wrap;html=1;fillColor=#ffe6cc;strokeColor=#d79b00;fontFamily=Times New Roman;fontSize=16;" vertex="1" parent="1">
          <mxGeometry x="577" y="249.5" width="90" height="47" as="geometry" />
        </mxCell>
        <mxCell id="oZWj6VGUN02tXFsYtWKZ-104" style="edgeStyle=orthogonalEdgeStyle;rounded=0;orthogonalLoop=1;jettySize=auto;html=1;exitX=0.5;exitY=1;exitDx=0;exitDy=0;entryX=0.5;entryY=0;entryDx=0;entryDy=0;entryPerimeter=0;fontFamily=Times New Roman;fontSize=16;" edge="1" parent="1" source="oZWj6VGUN02tXFsYtWKZ-93" target="oZWj6VGUN02tXFsYtWKZ-34">
          <mxGeometry relative="1" as="geometry" />
        </mxCell>
        <mxCell id="oZWj6VGUN02tXFsYtWKZ-93" value="diff ..." style="ellipse;whiteSpace=wrap;html=1;fontFamily=Times New Roman;fontSize=16;" vertex="1" parent="1">
          <mxGeometry x="791" y="321.5" width="90" height="47" as="geometry" />
        </mxCell>
        <mxCell id="oZWj6VGUN02tXFsYtWKZ-95" value="wsc" style="rounded=1;whiteSpace=wrap;html=1;fontFamily=Times New Roman;fontSize=16;" vertex="1" parent="1">
          <mxGeometry x="970" y="100" width="120" height="60" as="geometry" />
        </mxCell>
        <mxCell id="oZWj6VGUN02tXFsYtWKZ-96" value="wsc" style="rounded=1;whiteSpace=wrap;html=1;fillColor=#dae8fc;strokeColor=#6c8ebf;fontFamily=Times New Roman;fontSize=16;" vertex="1" parent="1">
          <mxGeometry x="970" y="100" width="120" height="60" as="geometry" />
        </mxCell>
        <mxCell id="oZWj6VGUN02tXFsYtWKZ-97" value="" style="endArrow=none;html=1;rounded=0;fontFamily=Times New Roman;fontSize=16;" edge="1" parent="1">
          <mxGeometry width="50" height="50" relative="1" as="geometry">
            <mxPoint x="1260" y="770" as="sourcePoint" />
            <mxPoint x="1260" y="50" as="targetPoint" />
          </mxGeometry>
        </mxCell>
        <mxCell id="oZWj6VGUN02tXFsYtWKZ-100" value="鹰眼" style="rounded=1;whiteSpace=wrap;html=1;fontFamily=Times New Roman;fontSize=16;" vertex="1" parent="1">
          <mxGeometry x="1135" y="650" width="120" height="60" as="geometry" />
        </mxCell>
        <mxCell id="oZWj6VGUN02tXFsYtWKZ-101" value="007" style="rounded=1;whiteSpace=wrap;html=1;fontFamily=Times New Roman;fontSize=16;" vertex="1" parent="1">
          <mxGeometry x="1135" y="400" width="120" height="60" as="geometry" />
        </mxCell>
        <mxCell id="oZWj6VGUN02tXFsYtWKZ-102" value="天机阁2.0" style="rounded=1;whiteSpace=wrap;html=1;fontFamily=Times New Roman;fontSize=16;" vertex="1" parent="1">
          <mxGeometry x="1135" y="525" width="120" height="60" as="geometry" />
        </mxCell>
        <mxCell id="oZWj6VGUN02tXFsYtWKZ-103" value="ias" style="rounded=1;whiteSpace=wrap;html=1;fontFamily=Times New Roman;fontSize=16;" vertex="1" parent="1">
          <mxGeometry x="1135" y="275" width="120" height="60" as="geometry" />
        </mxCell>
        <mxCell id="oZWj6VGUN02tXFsYtWKZ-106" value="tdsql" style="strokeWidth=2;html=1;shape=mxgraph.flowchart.database;whiteSpace=wrap;fontFamily=Times New Roman;fontSize=16;" vertex="1" parent="1">
          <mxGeometry x="705" y="524" width="60" height="60" as="geometry" />
        </mxCell>
        <mxCell id="oZWj6VGUN02tXFsYtWKZ-109" value="" style="shape=flexArrow;endArrow=classic;html=1;rounded=0;entryX=0.5;entryY=0;entryDx=0;entryDy=0;entryPerimeter=0;fontFamily=Times New Roman;fontSize=16;" edge="1" parent="1" target="oZWj6VGUN02tXFsYtWKZ-33">
          <mxGeometry width="50" height="50" relative="1" as="geometry">
            <mxPoint x="500" y="390" as="sourcePoint" />
            <mxPoint x="530" y="440" as="targetPoint" />
          </mxGeometry>
        </mxCell>
        <mxCell id="oZWj6VGUN02tXFsYtWKZ-110" value="bdb" style="strokeWidth=2;html=1;shape=mxgraph.flowchart.database;whiteSpace=wrap;fillColor=#f8cecc;strokeColor=#b85450;fontFamily=Times New Roman;fontSize=16;" vertex="1" parent="1">
          <mxGeometry x="908" y="525" width="60" height="60" as="geometry" />
        </mxCell>
        <mxCell id="oZWj6VGUN02tXFsYtWKZ-111" value="安平" style="rounded=1;whiteSpace=wrap;html=1;fontFamily=Times New Roman;fontSize=16;" vertex="1" parent="1">
          <mxGeometry x="1135" y="150" width="120" height="60" as="geometry" />
        </mxCell>
        <mxCell id="oZWj6VGUN02tXFsYtWKZ-115" value="抽帧" style="ellipse;whiteSpace=wrap;html=1;fontFamily=Times New Roman;fontSize=16;" vertex="1" parent="1">
          <mxGeometry x="791" y="249.5" width="90" height="47" as="geometry" />
        </mxCell>
        <mxCell id="oZWj6VGUN02tXFsYtWKZ-116" value="diff ..." style="ellipse;whiteSpace=wrap;html=1;fontFamily=Times New Roman;fontSize=16;" vertex="1" parent="1">
          <mxGeometry x="791" y="321.5" width="90" height="47" as="geometry" />
        </mxCell>
        <mxCell id="oZWj6VGUN02tXFsYtWKZ-117" value="体育标准化" style="ellipse;whiteSpace=wrap;html=1;fontFamily=Times New Roman;fontSize=16;" vertex="1" parent="1">
          <mxGeometry x="684" y="321.5" width="90" height="47" as="geometry" />
        </mxCell>
        <mxCell id="oZWj6VGUN02tXFsYtWKZ-118" value="抽帧" style="ellipse;whiteSpace=wrap;html=1;fillColor=#ffe6cc;strokeColor=#d79b00;fontFamily=Times New Roman;fontSize=16;" vertex="1" parent="1">
          <mxGeometry x="791" y="249.5" width="90" height="47" as="geometry" />
        </mxCell>
        <mxCell id="oZWj6VGUN02tXFsYtWKZ-119" value="diff ..." style="ellipse;whiteSpace=wrap;html=1;fillColor=#ffe6cc;strokeColor=#d79b00;fontFamily=Times New Roman;fontSize=16;" vertex="1" parent="1">
          <mxGeometry x="791" y="321.5" width="90" height="47" as="geometry" />
        </mxCell>
        <mxCell id="oZWj6VGUN02tXFsYtWKZ-120" value="体育标准化" style="ellipse;whiteSpace=wrap;html=1;fillColor=#ffe6cc;strokeColor=#d79b00;fontFamily=Times New Roman;fontSize=16;" vertex="1" parent="1">
          <mxGeometry x="684" y="321.5" width="90" height="47" as="geometry" />
        </mxCell>
        <mxCell id="oZWj6VGUN02tXFsYtWKZ-121" value="标签" style="ellipse;whiteSpace=wrap;html=1;fillColor=#ffe6cc;strokeColor=#d79b00;fontFamily=Times New Roman;fontSize=16;" vertex="1" parent="1">
          <mxGeometry x="470" y="321.5" width="90" height="47" as="geometry" />
        </mxCell>
        <mxCell id="oZWj6VGUN02tXFsYtWKZ-122" value="kafka" style="strokeWidth=2;html=1;shape=mxgraph.flowchart.direct_data;whiteSpace=wrap;fontFamily=Times New Roman;fontSize=16;fontColor=rgb(0, 0, 0);align=center;strokeColor=rgb(0, 0, 0);fillColor=rgb(255, 255, 255);" vertex="1" parent="1">
          <mxGeometry x="784" y="422" width="104" height="58" as="geometry" />
        </mxCell>
        <mxCell id="oZWj6VGUN02tXFsYtWKZ-123" value="mysql" style="strokeWidth=2;html=1;shape=mxgraph.flowchart.database;whiteSpace=wrap;fontFamily=Times New Roman;fontSize=16;" vertex="1" parent="1">
          <mxGeometry x="470" y="524" width="60" height="60" as="geometry" />
        </mxCell>
        <mxCell id="oZWj6VGUN02tXFsYtWKZ-124" value="tdsql" style="strokeWidth=2;html=1;shape=mxgraph.flowchart.database;whiteSpace=wrap;fontFamily=Times New Roman;fontSize=16;" vertex="1" parent="1">
          <mxGeometry x="603" y="524" width="60" height="60" as="geometry" />
        </mxCell>
        <mxCell id="oZWj6VGUN02tXFsYtWKZ-125" value="tdsql" style="strokeWidth=2;html=1;shape=mxgraph.flowchart.database;whiteSpace=wrap;fontFamily=Times New Roman;fontSize=16;" vertex="1" parent="1">
          <mxGeometry x="705" y="524" width="60" height="60" as="geometry" />
        </mxCell>
        <mxCell id="oZWj6VGUN02tXFsYtWKZ-126" value="kafka" style="strokeWidth=2;html=1;shape=mxgraph.flowchart.direct_data;whiteSpace=wrap;fontFamily=Times New Roman;fontSize=16;fontColor=rgb(0, 0, 0);align=center;strokeColor=rgb(0, 0, 0);fillColor=rgb(255, 255, 255);" vertex="1" parent="1">
          <mxGeometry x="784" y="422" width="104" height="58" as="geometry" />
        </mxCell>
        <mxCell id="oZWj6VGUN02tXFsYtWKZ-127" value="mysql" style="strokeWidth=2;html=1;shape=mxgraph.flowchart.database;whiteSpace=wrap;fontFamily=Times New Roman;fontSize=16;" vertex="1" parent="1">
          <mxGeometry x="470" y="524" width="60" height="60" as="geometry" />
        </mxCell>
        <mxCell id="oZWj6VGUN02tXFsYtWKZ-128" value="tdsql" style="strokeWidth=2;html=1;shape=mxgraph.flowchart.database;whiteSpace=wrap;fontFamily=Times New Roman;fontSize=16;" vertex="1" parent="1">
          <mxGeometry x="603" y="524" width="60" height="60" as="geometry" />
        </mxCell>
        <mxCell id="oZWj6VGUN02tXFsYtWKZ-129" value="tdsql" style="strokeWidth=2;html=1;shape=mxgraph.flowchart.database;whiteSpace=wrap;fontFamily=Times New Roman;fontSize=16;" vertex="1" parent="1">
          <mxGeometry x="705" y="524" width="60" height="60" as="geometry" />
        </mxCell>
        <mxCell id="oZWj6VGUN02tXFsYtWKZ-130" value="kafka" style="strokeWidth=2;html=1;shape=mxgraph.flowchart.direct_data;whiteSpace=wrap;fontFamily=Times New Roman;fontSize=16;fontColor=rgb(0, 0, 0);align=center;strokeColor=rgb(0, 0, 0);fillColor=rgb(255, 255, 255);" vertex="1" parent="1">
          <mxGeometry x="784" y="422" width="104" height="58" as="geometry" />
        </mxCell>
        <mxCell id="oZWj6VGUN02tXFsYtWKZ-131" value="mysql" style="strokeWidth=2;html=1;shape=mxgraph.flowchart.database;whiteSpace=wrap;fontFamily=Times New Roman;fontSize=16;" vertex="1" parent="1">
          <mxGeometry x="470" y="524" width="60" height="60" as="geometry" />
        </mxCell>
        <mxCell id="oZWj6VGUN02tXFsYtWKZ-132" value="tdsql" style="strokeWidth=2;html=1;shape=mxgraph.flowchart.database;whiteSpace=wrap;fontFamily=Times New Roman;fontSize=16;" vertex="1" parent="1">
          <mxGeometry x="603" y="524" width="60" height="60" as="geometry" />
        </mxCell>
        <mxCell id="oZWj6VGUN02tXFsYtWKZ-133" value="tdsql" style="strokeWidth=2;html=1;shape=mxgraph.flowchart.database;whiteSpace=wrap;fontFamily=Times New Roman;fontSize=16;" vertex="1" parent="1">
          <mxGeometry x="705" y="524" width="60" height="60" as="geometry" />
        </mxCell>
        <mxCell id="oZWj6VGUN02tXFsYtWKZ-134" value="redis" style="strokeWidth=2;html=1;shape=mxgraph.flowchart.database;whiteSpace=wrap;fontFamily=Times New Roman;fontSize=16;" vertex="1" parent="1">
          <mxGeometry x="807" y="525" width="60" height="60" as="geometry" />
        </mxCell>
        <mxCell id="oZWj6VGUN02tXFsYtWKZ-135" value="kafka" style="strokeWidth=2;html=1;shape=mxgraph.flowchart.direct_data;whiteSpace=wrap;fontFamily=Times New Roman;fontSize=16;fontColor=rgb(0, 0, 0);align=center;strokeColor=rgb(0, 0, 0);fillColor=rgb(255, 255, 255);" vertex="1" parent="1">
          <mxGeometry x="784" y="422" width="104" height="58" as="geometry" />
        </mxCell>
        <mxCell id="oZWj6VGUN02tXFsYtWKZ-136" value="mysql" style="strokeWidth=2;html=1;shape=mxgraph.flowchart.database;whiteSpace=wrap;fontFamily=Times New Roman;fontSize=16;" vertex="1" parent="1">
          <mxGeometry x="470" y="524" width="60" height="60" as="geometry" />
        </mxCell>
        <mxCell id="oZWj6VGUN02tXFsYtWKZ-137" value="tdsql" style="strokeWidth=2;html=1;shape=mxgraph.flowchart.database;whiteSpace=wrap;fontFamily=Times New Roman;fontSize=16;" vertex="1" parent="1">
          <mxGeometry x="603" y="524" width="60" height="60" as="geometry" />
        </mxCell>
        <mxCell id="oZWj6VGUN02tXFsYtWKZ-138" value="tdsql" style="strokeWidth=2;html=1;shape=mxgraph.flowchart.database;whiteSpace=wrap;fontFamily=Times New Roman;fontSize=16;" vertex="1" parent="1">
          <mxGeometry x="705" y="524" width="60" height="60" as="geometry" />
        </mxCell>
        <mxCell id="oZWj6VGUN02tXFsYtWKZ-139" value="redis" style="strokeWidth=2;html=1;shape=mxgraph.flowchart.database;whiteSpace=wrap;fontFamily=Times New Roman;fontSize=16;" vertex="1" parent="1">
          <mxGeometry x="807" y="525" width="60" height="60" as="geometry" />
        </mxCell>
        <mxCell id="oZWj6VGUN02tXFsYtWKZ-140" value="kafka" style="strokeWidth=2;html=1;shape=mxgraph.flowchart.direct_data;whiteSpace=wrap;fontFamily=Times New Roman;fontSize=16;align=center;strokeColor=#b85450;fillColor=#f8cecc;" vertex="1" parent="1">
          <mxGeometry x="784" y="422" width="104" height="58" as="geometry" />
        </mxCell>
        <mxCell id="oZWj6VGUN02tXFsYtWKZ-141" value="mysql" style="strokeWidth=2;html=1;shape=mxgraph.flowchart.database;whiteSpace=wrap;fillColor=#f8cecc;strokeColor=#b85450;fontFamily=Times New Roman;fontSize=16;" vertex="1" parent="1">
          <mxGeometry x="470" y="524" width="60" height="60" as="geometry" />
        </mxCell>
        <mxCell id="oZWj6VGUN02tXFsYtWKZ-142" value="tdsql" style="strokeWidth=2;html=1;shape=mxgraph.flowchart.database;whiteSpace=wrap;fillColor=#f8cecc;strokeColor=#b85450;fontFamily=Times New Roman;fontSize=16;" vertex="1" parent="1">
          <mxGeometry x="603" y="524" width="60" height="60" as="geometry" />
        </mxCell>
        <mxCell id="oZWj6VGUN02tXFsYtWKZ-143" value="tdsql" style="strokeWidth=2;html=1;shape=mxgraph.flowchart.database;whiteSpace=wrap;fillColor=#f8cecc;strokeColor=#b85450;fontFamily=Times New Roman;fontSize=16;" vertex="1" parent="1">
          <mxGeometry x="705" y="524" width="60" height="60" as="geometry" />
        </mxCell>
        <mxCell id="oZWj6VGUN02tXFsYtWKZ-144" value="redis" style="strokeWidth=2;html=1;shape=mxgraph.flowchart.database;whiteSpace=wrap;fillColor=#f8cecc;strokeColor=#b85450;fontFamily=Times New Roman;fontSize=16;" vertex="1" parent="1">
          <mxGeometry x="807" y="525" width="60" height="60" as="geometry" />
        </mxCell>
        <mxCell id="oZWj6VGUN02tXFsYtWKZ-145" value="企鹅号视频发布" style="rounded=1;whiteSpace=wrap;html=1;fillColor=#dae8fc;strokeColor=#6c8ebf;fontFamily=Times New Roman;fontSize=16;" vertex="1" parent="1">
          <mxGeometry x="310" y="670" width="120" height="60" as="geometry" />
        </mxCell>
        <mxCell id="oZWj6VGUN02tXFsYtWKZ-146" value="体育推荐页" style="rounded=1;whiteSpace=wrap;html=1;fillColor=#dae8fc;strokeColor=#6c8ebf;fontFamily=Times New Roman;fontSize=16;" vertex="1" parent="1">
          <mxGeometry x="448" y="670" width="120" height="60" as="geometry" />
        </mxCell>
        <mxCell id="oZWj6VGUN02tXFsYtWKZ-147" value="体育个人主页" style="rounded=1;whiteSpace=wrap;html=1;fillColor=#dae8fc;strokeColor=#6c8ebf;fontFamily=Times New Roman;fontSize=16;" vertex="1" parent="1">
          <mxGeometry x="586" y="670" width="120" height="60" as="geometry" />
        </mxCell>
        <mxCell id="oZWj6VGUN02tXFsYtWKZ-148" value="比赛底层页" style="rounded=1;whiteSpace=wrap;html=1;fillColor=#dae8fc;strokeColor=#6c8ebf;fontFamily=Times New Roman;fontSize=16;" vertex="1" parent="1">
          <mxGeometry x="724" y="670" width="120" height="60" as="geometry" />
        </mxCell>
        <mxCell id="oZWj6VGUN02tXFsYtWKZ-149" value="体育球员球队页" style="rounded=1;whiteSpace=wrap;html=1;fillColor=#dae8fc;strokeColor=#6c8ebf;fontFamily=Times New Roman;fontSize=16;" vertex="1" parent="1">
          <mxGeometry x="862" y="670" width="120" height="60" as="geometry" />
        </mxCell>
        <mxCell id="oZWj6VGUN02tXFsYtWKZ-150" value="体育号app视频" style="rounded=1;whiteSpace=wrap;html=1;fillColor=#dae8fc;strokeColor=#6c8ebf;fontFamily=Times New Roman;fontSize=16;" vertex="1" parent="1">
          <mxGeometry x="482.5" y="100" width="120" height="60" as="geometry" />
        </mxCell>
        <mxCell id="oZWj6VGUN02tXFsYtWKZ-151" value="体育个人直播" style="rounded=1;whiteSpace=wrap;html=1;fillColor=#dae8fc;strokeColor=#6c8ebf;fontFamily=Times New Roman;fontSize=16;" vertex="1" parent="1">
          <mxGeometry x="644.5" y="100" width="120" height="60" as="geometry" />
        </mxCell>
        <mxCell id="oZWj6VGUN02tXFsYtWKZ-152" value="草根直播" style="rounded=1;whiteSpace=wrap;html=1;fillColor=#dae8fc;strokeColor=#6c8ebf;fontFamily=Times New Roman;fontSize=16;" vertex="1" parent="1">
          <mxGeometry x="807.5" y="100" width="120" height="60" as="geometry" />
        </mxCell>
      </root>
    </mxGraphModel>
  </diagram>
</mxfile>
